<?xml version="1.0" encoding="UTF-8" standalone="no"?>
<svg width="247px" height="317px" viewBox="0 0 247 317" version="1.1" xmlns="http://www.w3.org/2000/svg" xmlns:xlink="http://www.w3.org/1999/xlink">
    <!-- Generator: Sketch 41.2 (35397) - http://www.bohemiancoding.com/sketch -->
    <title>icon-gray</title>
    <desc>Created with Sketch.</desc>
    <defs></defs>
    <g id="logo" stroke="none" stroke-width="1" fill="none" fill-rule="evenodd">
        <path d="M207.55868,19.0563879 L207.55868,5.53497689 C207.55868,4.05819544 207.050667,2.81179189 206.011013,1.77213775 C204.835495,0.596619708 203.494577,0 202.017796,0 L91.2591868,0 C89.7824053,0 88.5419089,0.596619708 87.5022548,1.77213775 C87.3368552,1.77213775 87.2718769,1.84302326 87.2718769,1.97888715 L1.98479428,87.2659697 C0.809276237,88.3056239 0.206749404,89.5756559 0.206749404,91.0524374 L0,91.2591868 L0,272.023144 C0,273.499925 0.57889833,274.817215 1.77804487,276.016361 C2.81769902,277.056015 4.06410256,277.564028 5.54088402,277.564028 L19.0386665,277.564028 L19.0386665,291.061811 C19.0386665,292.538592 19.6411934,293.87951 20.8167114,295.055028 C21.7145945,295.952911 22.6597346,296.460924 23.6993888,296.596787 L24.5736434,296.596787 L39.2055941,296.596787 L39.2055941,311.459116 C39.2055941,312.935897 39.8081209,314.253186 40.9836389,315.428705 C41.8578936,316.326588 42.8266622,316.8346 43.8663163,317 L44.7464781,317 L241.22339,317 C242.700171,317 244.041089,316.468359 245.216607,315.428705 C246.256261,314.253186 246.764274,312.935897 246.764274,311.459116 L246.764274,44.9709489 C246.764274,43.4941674 246.256261,42.2241354 245.216607,41.2081097 C244.041089,40.0325917 242.700171,39.4300648 241.22339,39.4300648 L226.620975,39.4300648 L226.620975,24.5972719 C226.620975,23.1204905 226.089334,21.8504584 225.049679,20.8108043 C223.874161,19.6352862 222.556872,19.0563879 221.080091,19.0563879 L207.55868,19.0563879 L207.55868,19.0563879 Z M207.55868,30.1322488 L215.545114,30.1322488 L215.545114,285.520927 L30.1145274,285.520927 L30.1145274,277.564028 L202.017796,277.564028 C203.494577,277.564028 204.835495,277.032387 206.011013,276.016361 C207.050667,274.840843 207.55868,273.499925 207.55868,272.023144 L207.55868,30.1322488 L207.55868,30.1322488 Z M95.0220259,95.0161188 C96.0616801,93.8406008 96.5696929,92.5292188 96.5696929,91.0524374 L96.5696929,11.0699538 L196.482819,11.0699538 L196.482819,266.488167 L11.0758609,266.488167 L11.0758609,96.5874143 L91.0288089,96.5874143 C92.5055903,96.5874143 93.8465079,96.055773 95.0220259,95.0161188 L95.0220259,95.0161188 Z M226.620975,50.5059258 L235.688413,50.5059258 L235.688413,305.924139 L50.281455,305.924139 L50.281455,296.596787 L221.080091,296.596787 C222.556872,296.596787 223.874161,296.088775 225.049679,295.055028 C226.089334,293.87951 226.620975,292.538592 226.620975,291.061811 L226.620975,50.5059258 L226.620975,50.5059258 Z M85.493832,19.0563879 L85.493832,85.5115534 L19.0386665,85.5115534 L85.493832,19.0563879 L85.493832,19.0563879 Z M55.1489267,171.672891 L55.1489267,173.013808 L102.571333,173.013808 L102.571333,119.849676 C90.1545543,120.883423 79.4449352,125.892665 70.4483825,134.889218 C60.2467762,145.090824 55.1489267,157.342203 55.1489267,171.672891 L55.1489267,171.672891 Z M55.586054,177.444153 C56.3244447,186.139442 59.2780076,194.125876 64.4467427,201.344384 C66.0889237,203.724955 68.0737179,206.075991 70.4483825,208.456563 C80.6263603,218.628634 92.8777393,223.726483 107.208427,223.726483 C119.920561,223.726483 131.067308,219.668288 140.666387,211.54599 C140.22926,211.847253 139.762597,211.983117 139.32547,211.983117 C138.752478,211.983117 138.220837,211.776368 137.78371,211.315612 L103.882715,177.444153 L55.586054,177.444153 L55.586054,177.444153 Z M107.208427,119.619298 L107.001677,119.619298 L107.001677,174.32519 L141.103514,208.456563 C141.404778,208.751919 141.540642,209.194954 141.540642,209.767945 C141.540642,210.370472 141.333892,210.878485 140.873137,211.315612 C141.912791,210.43545 142.946538,209.466682 143.986192,208.456563 C153.284008,199.15284 158.387765,188.147864 159.262019,175.43573 L159.262019,175.22898 L159.262019,171.672891 C159.262019,157.342203 154.16417,145.090824 143.986192,134.889218 C140.436009,131.362664 136.744056,128.544965 132.910331,126.495192 C125.22516,121.899448 116.665735,119.619298 107.208427,119.619298 L107.208427,119.619298 Z M115.631988,52.49072 C116.069115,52.9278473 116.600757,53.1641324 117.173748,53.1641324 L174.331097,53.1641324 C174.933624,53.1641324 175.43573,52.9278473 175.878764,52.49072 C176.315891,52.0535927 176.546269,51.5455799 176.546269,50.9430531 C176.546269,50.3464334 176.315891,49.8384205 175.878764,49.4012932 C175.43573,48.9641659 174.933624,48.733788 174.331097,48.733788 L117.173748,48.733788 C116.600757,48.733788 116.069115,48.9641659 115.631988,49.4012932 C115.188953,49.8384205 114.958576,50.3464334 114.958576,50.9430531 C114.958576,51.5455799 115.188953,52.0535927 115.631988,52.49072 L115.631988,52.49072 Z M114.958576,69.107465 C114.958576,69.7040847 115.188953,70.2120975 115.631988,70.6492248 C116.069115,71.0922592 116.600757,71.3226371 117.173748,71.3226371 L174.331097,71.3226371 C174.933624,71.3226371 175.43573,71.1158877 175.878764,70.6492248 C176.315891,70.2120975 176.546269,69.7040847 176.546269,69.107465 C176.546269,68.5285666 176.315891,67.9969253 175.878764,67.559798 C175.43573,67.1226707 174.933624,66.8922928 174.331097,66.8922928 L117.173748,66.8922928 C116.600757,66.8922928 116.069115,67.1226707 115.631988,67.559798 C115.188953,67.9969253 114.958576,68.5285666 114.958576,69.107465 L114.958576,69.107465 Z M176.546269,32.5541704 C176.546269,31.9811792 176.315891,31.4495379 175.878764,31.0124106 C175.43573,30.5693761 174.933624,30.3389982 174.331097,30.3389982 L117.173748,30.3389982 C116.600757,30.3389982 116.069115,30.5693761 115.631988,31.0124106 C115.188953,31.4495379 114.958576,31.9811792 114.958576,32.5541704 C114.958576,33.1566972 115.188953,33.66471 115.631988,34.1018374 C116.069115,34.5389647 116.600757,34.7693426 117.173748,34.7693426 L174.331097,34.7693426 C174.933624,34.7693426 175.43573,34.5625932 175.878764,34.1018374 C176.315891,33.66471 176.546269,33.1566972 176.546269,32.5541704 Z" id="Page-1" fill="#999999"></path>
    </g>
</svg>